<?xml version="1.0" encoding="UTF-8" standalone="no"?>
<!DOCTYPE svg PUBLIC "-//W3C//DTD SVG 1.1//EN"
 "http://www.w3.org/Graphics/SVG/1.1/DTD/svg11.dtd">
<!-- Generated by graphviz version 2.40.1 (20161225.0304)
 -->
<!-- Title: state transitions Pages: 1 -->
<svg width="468pt" height="680pt"
 viewBox="0.00 0.00 468.00 680.00" xmlns="http://www.w3.org/2000/svg" xmlns:xlink="http://www.w3.org/1999/xlink">
<g id="graph0" class="graph" transform="scale(1 1) rotate(0) translate(4 676)">
<title>state transitions</title>
<polygon fill="#ffffff" stroke="transparent" points="-4,4 -4,-676 464,-676 464,4 -4,4"/>
<g id="clust1" class="cluster state regular">
<title>cluster_state</title>
<path fill="none" stroke="#000000" stroke-width="2" d="M20,-8C20,-8 440,-8 440,-8 446,-8 452,-14 452,-20 452,-20 452,-652 452,-652 452,-658 446,-664 440,-664 440,-664 20,-664 20,-664 14,-664 8,-658 8,-652 8,-652 8,-20 8,-20 8,-14 14,-8 20,-8"/>
<text text-anchor="start" x="216.9944" y="-645.2" font-family="Helvetica,sans-Serif" font-size="12.00" fill="#000000">state</text>
</g>
<!-- state -->
<!-- new_data -->
<g id="node2" class="node state regular">
<title>new_data</title>
<polygon fill="#ffffff" fill-opacity="0.003922" stroke="transparent" stroke-width="2" points="195,-626 121,-626 121,-590 195,-590 195,-626"/>
<text text-anchor="start" x="131.9888" y="-604.2" font-family="Helvetica,sans-Serif" font-size="12.00" fill="#000000">new_data</text>
<path fill="none" stroke="#000000" stroke-width="2" d="M133.3333,-591C133.3333,-591 182.6667,-591 182.6667,-591 188.3333,-591 194,-596.6667 194,-602.3333 194,-602.3333 194,-613.6667 194,-613.6667 194,-619.3333 188.3333,-625 182.6667,-625 182.6667,-625 133.3333,-625 133.3333,-625 127.6667,-625 122,-619.3333 122,-613.6667 122,-613.6667 122,-602.3333 122,-602.3333 122,-596.6667 127.6667,-591 133.3333,-591"/>
</g>
<!-- new_data&#45;&gt;new_data -->
<g id="edge2" class="edge transition">
<title>new_data&#45;&gt;new_data</title>
<path fill="none" stroke="#000000" d="M195.1626,-612.8747C207.3197,-612.8495 217,-611.2246 217,-608 217,-605.7831 212.4246,-604.3223 205.6144,-603.6176"/>
<polygon fill="#000000" stroke="#000000" points="205.3163,-600.0997 195.1626,-603.1253 204.9869,-607.092 205.3163,-600.0997"/>
<text text-anchor="start" x="217" y="-605" font-family="Helvetica,sans-Serif" font-size="10.00" fill="#000000">not (newd == 1&#39;b1) &#160;&#160;</text>
</g>
<!-- wstart -->
<g id="node3" class="node state regular">
<title>wstart</title>
<polygon fill="#ffffff" fill-opacity="0.003922" stroke="transparent" stroke-width="2" points="186,-544 130,-544 130,-508 186,-508 186,-544"/>
<text text-anchor="start" x="142.001" y="-522.2" font-family="Helvetica,sans-Serif" font-size="12.00" fill="#000000">wstart</text>
<path fill="none" stroke="#000000" stroke-width="2" d="M142.3333,-509C142.3333,-509 173.6667,-509 173.6667,-509 179.3333,-509 185,-514.6667 185,-520.3333 185,-520.3333 185,-531.6667 185,-531.6667 185,-537.3333 179.3333,-543 173.6667,-543 173.6667,-543 142.3333,-543 142.3333,-543 136.6667,-543 131,-537.3333 131,-531.6667 131,-531.6667 131,-520.3333 131,-520.3333 131,-514.6667 136.6667,-509 142.3333,-509"/>
</g>
<!-- new_data&#45;&gt;wstart -->
<g id="edge1" class="edge transition">
<title>new_data&#45;&gt;wstart</title>
<path fill="none" stroke="#000000" d="M158,-589.8015C158,-579.3976 158,-566.1215 158,-554.3768"/>
<polygon fill="#000000" stroke="#000000" points="161.5001,-554.1476 158,-544.1476 154.5001,-554.1476 161.5001,-554.1476"/>
<text text-anchor="start" x="158" y="-564" font-family="Helvetica,sans-Serif" font-size="10.00" fill="#000000">newd == 1&#39;b1 &#160;&#160;</text>
</g>
<!-- check_wr -->
<g id="node4" class="node state regular">
<title>check_wr</title>
<polygon fill="#ffffff" fill-opacity="0.003922" stroke="transparent" stroke-width="2" points="194,-462 122,-462 122,-426 194,-426 194,-462"/>
<text text-anchor="start" x="132.665" y="-440.2" font-family="Helvetica,sans-Serif" font-size="12.00" fill="#000000">check_wr</text>
<path fill="none" stroke="#000000" stroke-width="2" d="M134.3333,-427C134.3333,-427 181.6667,-427 181.6667,-427 187.3333,-427 193,-432.6667 193,-438.3333 193,-438.3333 193,-449.6667 193,-449.6667 193,-455.3333 187.3333,-461 181.6667,-461 181.6667,-461 134.3333,-461 134.3333,-461 128.6667,-461 123,-455.3333 123,-449.6667 123,-449.6667 123,-438.3333 123,-438.3333 123,-432.6667 128.6667,-427 134.3333,-427"/>
</g>
<!-- wstart&#45;&gt;check_wr -->
<g id="edge3" class="edge transition">
<title>wstart&#45;&gt;check_wr</title>
<path fill="none" stroke="#000000" d="M158,-507.8015C158,-497.3976 158,-484.1215 158,-472.3768"/>
<polygon fill="#000000" stroke="#000000" points="161.5001,-472.1476 158,-462.1476 154.5001,-472.1476 161.5001,-472.1476"/>
<text text-anchor="middle" x="159.3895" y="-482" font-family="Helvetica,sans-Serif" font-size="10.00" fill="#000000"> </text>
</g>
<!-- wsend_addr -->
<g id="node5" class="node state regular">
<title>wsend_addr</title>
<polygon fill="#ffffff" fill-opacity="0.003922" stroke="transparent" stroke-width="2" points="167.5,-380 80.5,-380 80.5,-344 167.5,-344 167.5,-380"/>
<text text-anchor="start" x="91.8234" y="-358.2" font-family="Helvetica,sans-Serif" font-size="12.00" fill="#000000">wsend_addr</text>
<path fill="none" stroke="#000000" stroke-width="2" d="M92.8333,-345C92.8333,-345 155.1667,-345 155.1667,-345 160.8333,-345 166.5,-350.6667 166.5,-356.3333 166.5,-356.3333 166.5,-367.6667 166.5,-367.6667 166.5,-373.3333 160.8333,-379 155.1667,-379 155.1667,-379 92.8333,-379 92.8333,-379 87.1667,-379 81.5,-373.3333 81.5,-367.6667 81.5,-367.6667 81.5,-356.3333 81.5,-356.3333 81.5,-350.6667 87.1667,-345 92.8333,-345"/>
</g>
<!-- check_wr&#45;&gt;wsend_addr -->
<g id="edge4" class="edge transition">
<title>check_wr&#45;&gt;wsend_addr</title>
<path fill="none" stroke="#000000" d="M150.4543,-425.8015C146.0524,-415.1853 140.4106,-401.5784 135.4686,-389.6596"/>
<polygon fill="#000000" stroke="#000000" points="138.5879,-388.0444 131.5246,-380.1476 132.1217,-390.7256 138.5879,-388.0444"/>
<text text-anchor="start" x="143" y="-400" font-family="Helvetica,sans-Serif" font-size="10.00" fill="#000000">wr == 1&#39;b1 &#160;&#160;</text>
</g>
<!-- rsend_addr -->
<g id="node10" class="node state regular">
<title>rsend_addr</title>
<polygon fill="#ffffff" fill-opacity="0.003922" stroke="transparent" stroke-width="2" points="307,-380 225,-380 225,-344 307,-344 307,-380"/>
<text text-anchor="start" x="235.6574" y="-358.2" font-family="Helvetica,sans-Serif" font-size="12.00" fill="#000000">rsend_addr</text>
<path fill="none" stroke="#000000" stroke-width="2" d="M237.3333,-345C237.3333,-345 294.6667,-345 294.6667,-345 300.3333,-345 306,-350.6667 306,-356.3333 306,-356.3333 306,-367.6667 306,-367.6667 306,-373.3333 300.3333,-379 294.6667,-379 294.6667,-379 237.3333,-379 237.3333,-379 231.6667,-379 226,-373.3333 226,-367.6667 226,-367.6667 226,-356.3333 226,-356.3333 226,-350.6667 231.6667,-345 237.3333,-345"/>
</g>
<!-- check_wr&#45;&gt;rsend_addr -->
<g id="edge5" class="edge transition">
<title>check_wr&#45;&gt;rsend_addr</title>
<path fill="none" stroke="#000000" d="M181.9687,-425.8015C197.2095,-414.2298 217.13,-399.105 233.7502,-386.486"/>
<polygon fill="#000000" stroke="#000000" points="236.2503,-388.9823 242.0983,-380.1476 232.0173,-383.4071 236.2503,-388.9823"/>
<text text-anchor="start" x="219" y="-400" font-family="Helvetica,sans-Serif" font-size="10.00" fill="#000000">not (wr == 1&#39;b1) &#160;&#160;</text>
</g>
<!-- waddr_ack -->
<g id="node6" class="node state regular">
<title>waddr_ack</title>
<polygon fill="#ffffff" fill-opacity="0.003922" stroke="transparent" stroke-width="2" points="120,-298 40,-298 40,-262 120,-262 120,-298"/>
<text text-anchor="start" x="50.9942" y="-276.2" font-family="Helvetica,sans-Serif" font-size="12.00" fill="#000000">waddr_ack</text>
<path fill="none" stroke="#000000" stroke-width="2" d="M52.3333,-263C52.3333,-263 107.6667,-263 107.6667,-263 113.3333,-263 119,-268.6667 119,-274.3333 119,-274.3333 119,-285.6667 119,-285.6667 119,-291.3333 113.3333,-297 107.6667,-297 107.6667,-297 52.3333,-297 52.3333,-297 46.6667,-297 41,-291.3333 41,-285.6667 41,-285.6667 41,-274.3333 41,-274.3333 41,-268.6667 46.6667,-263 52.3333,-263"/>
</g>
<!-- wsend_addr&#45;&gt;waddr_ack -->
<g id="edge6" class="edge transition">
<title>wsend_addr&#45;&gt;waddr_ack</title>
<path fill="none" stroke="#000000" d="M114.235,-343.8015C108.4815,-333.0791 101.091,-319.306 94.6502,-307.3026"/>
<polygon fill="#000000" stroke="#000000" points="97.55,-305.3043 89.7377,-298.1476 91.3819,-308.6141 97.55,-305.3043"/>
<text text-anchor="start" x="104" y="-318" font-family="Helvetica,sans-Serif" font-size="10.00" fill="#000000">not (i &lt;= 7) &#160;&#160;</text>
</g>
<!-- waddr_ack&#45;&gt;waddr_ack -->
<g id="edge8" class="edge transition">
<title>waddr_ack&#45;&gt;waddr_ack</title>
<path fill="none" stroke="#000000" d="M120.2514,-284.8676C132.4582,-284.7456 142,-283.123 142,-280 142,-277.8529 137.49,-276.415 130.7046,-275.6864"/>
<polygon fill="#000000" stroke="#000000" points="130.4226,-272.1666 120.2514,-275.1324 130.0521,-279.1568 130.4226,-272.1666"/>
<text text-anchor="start" x="142" y="-277" font-family="Helvetica,sans-Serif" font-size="10.00" fill="#000000">not (ack == 1&#39;b1) &#160;&#160;</text>
</g>
<!-- wsend_data -->
<g id="node7" class="node state regular">
<title>wsend_data</title>
<polygon fill="#ffffff" fill-opacity="0.003922" stroke="transparent" stroke-width="2" points="126,-216 40,-216 40,-180 126,-180 126,-216"/>
<text text-anchor="start" x="50.6534" y="-194.2" font-family="Helvetica,sans-Serif" font-size="12.00" fill="#000000">wsend_data</text>
<path fill="none" stroke="#000000" stroke-width="2" d="M52.3333,-181C52.3333,-181 113.6667,-181 113.6667,-181 119.3333,-181 125,-186.6667 125,-192.3333 125,-192.3333 125,-203.6667 125,-203.6667 125,-209.3333 119.3333,-215 113.6667,-215 113.6667,-215 52.3333,-215 52.3333,-215 46.6667,-215 41,-209.3333 41,-203.6667 41,-203.6667 41,-192.3333 41,-192.3333 41,-186.6667 46.6667,-181 52.3333,-181"/>
</g>
<!-- waddr_ack&#45;&gt;wsend_data -->
<g id="edge7" class="edge transition">
<title>waddr_ack&#45;&gt;wsend_data</title>
<path fill="none" stroke="#000000" d="M80.6658,-261.8015C81.0464,-251.3976 81.5321,-238.1215 81.9618,-226.3768"/>
<polygon fill="#000000" stroke="#000000" points="85.468,-226.2689 82.3361,-216.1476 78.4727,-226.0129 85.468,-226.2689"/>
<text text-anchor="start" x="81" y="-236" font-family="Helvetica,sans-Serif" font-size="10.00" fill="#000000">ack == 1&#39;b1 &#160;&#160;</text>
</g>
<!-- wdata_ack -->
<g id="node8" class="node state regular">
<title>wdata_ack</title>
<polygon fill="#ffffff" fill-opacity="0.003922" stroke="transparent" stroke-width="2" points="119.5,-134 40.5,-134 40.5,-98 119.5,-98 119.5,-134"/>
<text text-anchor="start" x="51.8242" y="-112.2" font-family="Helvetica,sans-Serif" font-size="12.00" fill="#000000">wdata_ack</text>
<path fill="none" stroke="#000000" stroke-width="2" d="M52.8333,-99C52.8333,-99 107.1667,-99 107.1667,-99 112.8333,-99 118.5,-104.6667 118.5,-110.3333 118.5,-110.3333 118.5,-121.6667 118.5,-121.6667 118.5,-127.3333 112.8333,-133 107.1667,-133 107.1667,-133 52.8333,-133 52.8333,-133 47.1667,-133 41.5,-127.3333 41.5,-121.6667 41.5,-121.6667 41.5,-110.3333 41.5,-110.3333 41.5,-104.6667 47.1667,-99 52.8333,-99"/>
</g>
<!-- wsend_data&#45;&gt;wdata_ack -->
<g id="edge9" class="edge transition">
<title>wsend_data&#45;&gt;wdata_ack</title>
<path fill="none" stroke="#000000" d="M82.3342,-179.8015C81.9536,-169.3976 81.4679,-156.1215 81.0382,-144.3768"/>
<polygon fill="#000000" stroke="#000000" points="84.5273,-144.0129 80.6639,-134.1476 77.532,-144.2689 84.5273,-144.0129"/>
<text text-anchor="start" x="81" y="-154" font-family="Helvetica,sans-Serif" font-size="10.00" fill="#000000">not (i &lt;= 7) &#160;&#160;</text>
</g>
<!-- wdata_ack&#45;&gt;wdata_ack -->
<g id="edge11" class="edge transition">
<title>wdata_ack&#45;&gt;wdata_ack</title>
<path fill="none" stroke="#000000" d="M119.6309,-120.8702C131.8806,-120.7719 141.5,-119.1484 141.5,-116 141.5,-113.7863 136.7443,-112.3265 129.6625,-111.6206"/>
<polygon fill="#000000" stroke="#000000" points="129.7901,-108.1228 119.6309,-111.1298 129.4479,-115.1144 129.7901,-108.1228"/>
<text text-anchor="start" x="141.5" y="-113" font-family="Helvetica,sans-Serif" font-size="10.00" fill="#000000">not (ack == 1&#39;b1) &#160;&#160;</text>
</g>
<!-- wstop -->
<g id="node9" class="node state regular">
<title>wstop</title>
<polygon fill="#ffffff" fill-opacity="0.003922" stroke="transparent" stroke-width="2" points="86,-52 30,-52 30,-16 86,-16 86,-52"/>
<text text-anchor="start" x="42.3304" y="-30.2" font-family="Helvetica,sans-Serif" font-size="12.00" fill="#000000">wstop</text>
<path fill="none" stroke="#000000" stroke-width="2" d="M42.3333,-17C42.3333,-17 73.6667,-17 73.6667,-17 79.3333,-17 85,-22.6667 85,-28.3333 85,-28.3333 85,-39.6667 85,-39.6667 85,-45.3333 79.3333,-51 73.6667,-51 73.6667,-51 42.3333,-51 42.3333,-51 36.6667,-51 31,-45.3333 31,-39.6667 31,-39.6667 31,-28.3333 31,-28.3333 31,-22.6667 36.6667,-17 42.3333,-17"/>
</g>
<!-- wdata_ack&#45;&gt;wstop -->
<g id="edge10" class="edge transition">
<title>wdata_ack&#45;&gt;wstop</title>
<path fill="none" stroke="#000000" d="M75.1175,-97.8015C72.2977,-87.2915 68.6915,-73.8503 65.5169,-62.0177"/>
<polygon fill="#000000" stroke="#000000" points="68.8407,-60.899 62.8689,-52.1476 62.0798,-62.713 68.8407,-60.899"/>
<text text-anchor="start" x="70" y="-72" font-family="Helvetica,sans-Serif" font-size="10.00" fill="#000000">ack == 1&#39;b1 &#160;&#160;</text>
</g>
<!-- wstop&#45;&gt;new_data -->
<g id="edge12" class="edge transition">
<title>wstop&#45;&gt;new_data</title>
<path fill="none" stroke="#000000" d="M29.9727,-50.7026C22.7656,-57.1546 17,-65.3362 17,-75 17,-253.5 17,-253.5 17,-253.5 17,-272.3103 38,-316.6897 38,-335.5 38,-567 38,-567 38,-567 38,-583.0612 76.9807,-594.1327 110.5082,-600.685"/>
<polygon fill="#000000" stroke="#000000" points="110.2183,-604.1909 120.689,-602.5739 111.4953,-597.3083 110.2183,-604.1909"/>
<text text-anchor="middle" x="37.3895" y="-318" font-family="Helvetica,sans-Serif" font-size="10.00" fill="#000000"> </text>
</g>
<!-- raddr_ack -->
<g id="node11" class="node state regular">
<title>raddr_ack</title>
<polygon fill="#ffffff" fill-opacity="0.003922" stroke="transparent" stroke-width="2" points="318.5,-298 243.5,-298 243.5,-262 318.5,-262 318.5,-298"/>
<text text-anchor="start" x="254.8282" y="-276.2" font-family="Helvetica,sans-Serif" font-size="12.00" fill="#000000">raddr_ack</text>
<path fill="none" stroke="#000000" stroke-width="2" d="M255.8333,-263C255.8333,-263 306.1667,-263 306.1667,-263 311.8333,-263 317.5,-268.6667 317.5,-274.3333 317.5,-274.3333 317.5,-285.6667 317.5,-285.6667 317.5,-291.3333 311.8333,-297 306.1667,-297 306.1667,-297 255.8333,-297 255.8333,-297 250.1667,-297 244.5,-291.3333 244.5,-285.6667 244.5,-285.6667 244.5,-274.3333 244.5,-274.3333 244.5,-268.6667 250.1667,-263 255.8333,-263"/>
</g>
<!-- rsend_addr&#45;&gt;raddr_ack -->
<g id="edge13" class="edge transition">
<title>rsend_addr&#45;&gt;raddr_ack</title>
<path fill="none" stroke="#000000" d="M269.329,-343.8015C271.2516,-333.2915 273.7103,-319.8503 275.8748,-308.0177"/>
<polygon fill="#000000" stroke="#000000" points="279.3237,-308.6142 277.6803,-298.1476 272.438,-307.3545 279.3237,-308.6142"/>
<text text-anchor="start" x="274" y="-318" font-family="Helvetica,sans-Serif" font-size="10.00" fill="#000000">not (i &lt;= 7) &#160;&#160;</text>
</g>
<!-- raddr_ack&#45;&gt;raddr_ack -->
<g id="edge15" class="edge transition">
<title>raddr_ack&#45;&gt;raddr_ack</title>
<path fill="none" stroke="#000000" d="M318.7667,-284.8738C330.8908,-284.8238 340.5,-283.1992 340.5,-280 340.5,-277.8005 335.9582,-276.3453 329.1798,-275.6344"/>
<polygon fill="#000000" stroke="#000000" points="328.9255,-272.1179 318.7667,-275.1262 328.5842,-279.1096 328.9255,-272.1179"/>
<text text-anchor="start" x="340.5" y="-277" font-family="Helvetica,sans-Serif" font-size="10.00" fill="#000000">not (ack == 1&#39;b1) &#160;&#160;</text>
</g>
<!-- rsend_data -->
<g id="node12" class="node state regular">
<title>rsend_data</title>
<polygon fill="#ffffff" fill-opacity="0.003922" stroke="transparent" stroke-width="2" points="346,-216 264,-216 264,-180 346,-180 346,-216"/>
<text text-anchor="start" x="274.9874" y="-194.2" font-family="Helvetica,sans-Serif" font-size="12.00" fill="#000000">rsend_data</text>
<path fill="none" stroke="#000000" stroke-width="2" d="M276.3333,-181C276.3333,-181 333.6667,-181 333.6667,-181 339.3333,-181 345,-186.6667 345,-192.3333 345,-192.3333 345,-203.6667 345,-203.6667 345,-209.3333 339.3333,-215 333.6667,-215 333.6667,-215 276.3333,-215 276.3333,-215 270.6667,-215 265,-209.3333 265,-203.6667 265,-203.6667 265,-192.3333 265,-192.3333 265,-186.6667 270.6667,-181 276.3333,-181"/>
</g>
<!-- raddr_ack&#45;&gt;rsend_data -->
<g id="edge14" class="edge transition">
<title>raddr_ack&#45;&gt;rsend_data</title>
<path fill="none" stroke="#000000" d="M286.3264,-261.8015C289.4025,-251.2915 293.3365,-237.8503 296.7997,-226.0177"/>
<polygon fill="#000000" stroke="#000000" points="300.2385,-226.7281 299.6885,-216.1476 293.5204,-224.7618 300.2385,-226.7281"/>
<text text-anchor="start" x="294" y="-236" font-family="Helvetica,sans-Serif" font-size="10.00" fill="#000000">ack == 1&#39;b1 &#160;&#160;</text>
</g>
<!-- rsend_data&#45;&gt;rsend_data -->
<g id="edge16" class="edge transition">
<title>rsend_data&#45;&gt;rsend_data</title>
<path fill="none" stroke="#000000" d="M346.2026,-202.8643C358.4613,-202.7191 368,-201.0977 368,-198 368,-195.822 363.2842,-194.3737 356.2229,-193.6554"/>
<polygon fill="#000000" stroke="#000000" points="356.3705,-190.1584 346.2026,-193.1357 356.0079,-197.149 356.3705,-190.1584"/>
<text text-anchor="start" x="368" y="-195" font-family="Helvetica,sans-Serif" font-size="10.00" fill="#000000">i &lt;= 7 &#160;&#160;</text>
</g>
<!-- rstop -->
<g id="node13" class="node state regular">
<title>rstop</title>
<polygon fill="#ffffff" fill-opacity="0.003922" stroke="transparent" stroke-width="2" points="389,-134 333,-134 333,-98 389,-98 389,-134"/>
<text text-anchor="start" x="347.6644" y="-112.2" font-family="Helvetica,sans-Serif" font-size="12.00" fill="#000000">rstop</text>
<path fill="none" stroke="#000000" stroke-width="2" d="M345.3333,-99C345.3333,-99 376.6667,-99 376.6667,-99 382.3333,-99 388,-104.6667 388,-110.3333 388,-110.3333 388,-121.6667 388,-121.6667 388,-127.3333 382.3333,-133 376.6667,-133 376.6667,-133 345.3333,-133 345.3333,-133 339.6667,-133 334,-127.3333 334,-121.6667 334,-121.6667 334,-110.3333 334,-110.3333 334,-104.6667 339.6667,-99 345.3333,-99"/>
</g>
<!-- rsend_data&#45;&gt;rstop -->
<g id="edge17" class="edge transition">
<title>rsend_data&#45;&gt;rstop</title>
<path fill="none" stroke="#000000" d="M317.4282,-179.8015C324.8958,-168.8668 334.5302,-154.7593 342.8399,-142.5916"/>
<polygon fill="#000000" stroke="#000000" points="345.8572,-144.3795 348.6065,-134.1476 340.0766,-140.4317 345.8572,-144.3795"/>
<text text-anchor="start" x="336" y="-154" font-family="Helvetica,sans-Serif" font-size="10.00" fill="#000000">not (i &lt;= 7) &#160;&#160;</text>
</g>
<!-- rstop&#45;&gt;new_data -->
<g id="edge18" class="edge transition">
<title>rstop&#45;&gt;new_data</title>
<path fill="none" stroke="#000000" d="M389.2197,-118.5896C412.9394,-122.5031 443,-132.3295 443,-157 443,-253.5 443,-253.5 443,-253.5 443,-301.7304 441,-313.7696 441,-362 441,-567 441,-567 441,-567 441,-590.4886 286.3351,-601.6557 205.6833,-605.8821"/>
<polygon fill="#000000" stroke="#000000" points="205.0979,-602.4072 195.2883,-606.4099 205.453,-609.3982 205.0979,-602.4072"/>
<text text-anchor="middle" x="442.3895" y="-359" font-family="Helvetica,sans-Serif" font-size="10.00" fill="#000000"> </text>
</g>
</g>
</svg>
