<?xml version="1.0" encoding="UTF-8" standalone="no"?>
<!DOCTYPE svg PUBLIC "-//W3C//DTD SVG 1.1//EN"
 "http://www.w3.org/Graphics/SVG/1.1/DTD/svg11.dtd">
<!-- Generated by graphviz version 2.40.1 (20161225.0304)
 -->
<!-- Title: state transitions Pages: 1 -->
<svg width="481pt" height="551pt"
 viewBox="0.00 0.00 481.00 551.00" xmlns="http://www.w3.org/2000/svg" xmlns:xlink="http://www.w3.org/1999/xlink">
<g id="graph0" class="graph" transform="scale(1 1) rotate(0) translate(4 547)">
<title>state transitions</title>
<polygon fill="#ffffff" stroke="transparent" points="-4,4 -4,-547 477,-547 477,4 -4,4"/>
<g id="clust1" class="cluster state regular">
<title>cluster_state</title>
<path fill="none" stroke="#000000" stroke-width="2" d="M20,-8C20,-8 453,-8 453,-8 459,-8 465,-14 465,-20 465,-20 465,-523 465,-523 465,-529 459,-535 453,-535 453,-535 20,-535 20,-535 14,-535 8,-529 8,-523 8,-523 8,-20 8,-20 8,-14 14,-8 20,-8"/>
<text text-anchor="start" x="223.4944" y="-516.2" font-family="Helvetica,sans-Serif" font-size="12.00" fill="#000000">state</text>
</g>
<!-- state -->
<!-- start -->
<g id="node2" class="node state regular">
<title>start</title>
<polygon fill="#ffffff" fill-opacity="0.003922" stroke="transparent" stroke-width="2" points="199,-497 143,-497 143,-461 199,-461 199,-497"/>
<text text-anchor="start" x="159.3324" y="-475.2" font-family="Helvetica,sans-Serif" font-size="12.00" fill="#000000">start</text>
<path fill="none" stroke="#000000" stroke-width="2" d="M155.3333,-462C155.3333,-462 186.6667,-462 186.6667,-462 192.3333,-462 198,-467.6667 198,-473.3333 198,-473.3333 198,-484.6667 198,-484.6667 198,-490.3333 192.3333,-496 186.6667,-496 186.6667,-496 155.3333,-496 155.3333,-496 149.6667,-496 144,-490.3333 144,-484.6667 144,-484.6667 144,-473.3333 144,-473.3333 144,-467.6667 149.6667,-462 155.3333,-462"/>
</g>
<!-- start&#45;&gt;start -->
<g id="edge2" class="edge transition">
<title>start&#45;&gt;start</title>
<path fill="none" stroke="#000000" d="M199.0183,-483.8247C210.888,-484.1883 221,-482.5801 221,-479 221,-476.5387 216.2205,-475.0094 209.3762,-474.4121"/>
<polygon fill="#000000" stroke="#000000" points="209.0957,-470.9049 199.0183,-474.1753 208.9356,-477.903 209.0957,-470.9049"/>
<text text-anchor="start" x="221" y="-476" font-family="Helvetica,sans-Serif" font-size="10.00" fill="#000000">not ((scl == 1&#39;b1) &amp;&amp; (sda == 1&#39;b0)) &#160;&#160;</text>
</g>
<!-- store_addr -->
<g id="node3" class="node state regular">
<title>store_addr</title>
<polygon fill="#ffffff" fill-opacity="0.003922" stroke="transparent" stroke-width="2" points="191.5,-415 112.5,-415 112.5,-379 191.5,-379 191.5,-415"/>
<text text-anchor="start" x="123.8254" y="-393.2" font-family="Helvetica,sans-Serif" font-size="12.00" fill="#000000">store_addr</text>
<path fill="none" stroke="#000000" stroke-width="2" d="M124.8333,-380C124.8333,-380 179.1667,-380 179.1667,-380 184.8333,-380 190.5,-385.6667 190.5,-391.3333 190.5,-391.3333 190.5,-402.6667 190.5,-402.6667 190.5,-408.3333 184.8333,-414 179.1667,-414 179.1667,-414 124.8333,-414 124.8333,-414 119.1667,-414 113.5,-408.3333 113.5,-402.6667 113.5,-402.6667 113.5,-391.3333 113.5,-391.3333 113.5,-385.6667 119.1667,-380 124.8333,-380"/>
</g>
<!-- start&#45;&gt;store_addr -->
<g id="edge1" class="edge transition">
<title>start&#45;&gt;store_addr</title>
<path fill="none" stroke="#000000" d="M166.7833,-460.8015C164.348,-450.2915 161.2336,-436.8503 158.4919,-425.0177"/>
<polygon fill="#000000" stroke="#000000" points="161.8719,-424.0994 156.2049,-415.1476 155.0526,-425.6796 161.8719,-424.0994"/>
<text text-anchor="start" x="162" y="-435" font-family="Helvetica,sans-Serif" font-size="10.00" fill="#000000">(scl == 1&#39;b1) &amp;&amp; (sda == 1&#39;b0) &#160;&#160;</text>
</g>
<!-- ack_addr -->
<g id="node4" class="node state regular">
<title>ack_addr</title>
<polygon fill="#ffffff" fill-opacity="0.003922" stroke="transparent" stroke-width="2" points="187.5,-333 116.5,-333 116.5,-297 187.5,-297 187.5,-333"/>
<text text-anchor="start" x="127.8256" y="-311.2" font-family="Helvetica,sans-Serif" font-size="12.00" fill="#000000">ack_addr</text>
<path fill="none" stroke="#000000" stroke-width="2" d="M128.8333,-298C128.8333,-298 175.1667,-298 175.1667,-298 180.8333,-298 186.5,-303.6667 186.5,-309.3333 186.5,-309.3333 186.5,-320.6667 186.5,-320.6667 186.5,-326.3333 180.8333,-332 175.1667,-332 175.1667,-332 128.8333,-332 128.8333,-332 123.1667,-332 117.5,-326.3333 117.5,-320.6667 117.5,-320.6667 117.5,-309.3333 117.5,-309.3333 117.5,-303.6667 123.1667,-298 128.8333,-298"/>
</g>
<!-- store_addr&#45;&gt;ack_addr -->
<g id="edge3" class="edge transition">
<title>store_addr&#45;&gt;ack_addr</title>
<path fill="none" stroke="#000000" d="M152,-378.8015C152,-368.3976 152,-355.1215 152,-343.3768"/>
<polygon fill="#000000" stroke="#000000" points="155.5001,-343.1476 152,-333.1476 148.5001,-343.1476 155.5001,-343.1476"/>
<text text-anchor="start" x="152" y="-353" font-family="Helvetica,sans-Serif" font-size="10.00" fill="#000000">not (i &lt;= 7) &#160;&#160;</text>
</g>
<!-- store_data -->
<g id="node5" class="node state regular">
<title>store_data</title>
<polygon fill="#ffffff" fill-opacity="0.003922" stroke="transparent" stroke-width="2" points="102,-251 24,-251 24,-215 102,-215 102,-251"/>
<text text-anchor="start" x="34.6554" y="-229.2" font-family="Helvetica,sans-Serif" font-size="12.00" fill="#000000">store_data</text>
<path fill="none" stroke="#000000" stroke-width="2" d="M36.3333,-216C36.3333,-216 89.6667,-216 89.6667,-216 95.3333,-216 101,-221.6667 101,-227.3333 101,-227.3333 101,-238.6667 101,-238.6667 101,-244.3333 95.3333,-250 89.6667,-250 89.6667,-250 36.3333,-250 36.3333,-250 30.6667,-250 25,-244.3333 25,-238.6667 25,-238.6667 25,-227.3333 25,-227.3333 25,-221.6667 30.6667,-216 36.3333,-216"/>
</g>
<!-- ack_addr&#45;&gt;store_data -->
<g id="edge4" class="edge transition">
<title>ack_addr&#45;&gt;store_data</title>
<path fill="none" stroke="#000000" d="M116.4138,-306.7709C91.747,-300.2631 62.0529,-290.5422 54.64,-280 50.8233,-274.5721 50.2116,-267.9423 51.1735,-261.3932"/>
<polygon fill="#000000" stroke="#000000" points="54.6545,-261.9085 53.7459,-251.3527 47.8735,-260.1711 54.6545,-261.9085"/>
<text text-anchor="start" x="54" y="-271" font-family="Helvetica,sans-Serif" font-size="10.00" fill="#000000">addrin[0] == 1&#39;b1 &#160;&#160;</text>
</g>
<!-- send_data -->
<g id="node8" class="node state regular">
<title>send_data</title>
<polygon fill="#ffffff" fill-opacity="0.003922" stroke="transparent" stroke-width="2" points="204,-207 126,-207 126,-171 204,-171 204,-207"/>
<text text-anchor="start" x="136.9848" y="-185.2" font-family="Helvetica,sans-Serif" font-size="12.00" fill="#000000">send_data</text>
<path fill="none" stroke="#000000" stroke-width="2" d="M138.3333,-172C138.3333,-172 191.6667,-172 191.6667,-172 197.3333,-172 203,-177.6667 203,-183.3333 203,-183.3333 203,-194.6667 203,-194.6667 203,-200.3333 197.3333,-206 191.6667,-206 191.6667,-206 138.3333,-206 138.3333,-206 132.6667,-206 127,-200.3333 127,-194.6667 127,-194.6667 127,-183.3333 127,-183.3333 127,-177.6667 132.6667,-172 138.3333,-172"/>
</g>
<!-- ack_addr&#45;&gt;send_data -->
<g id="edge5" class="edge transition">
<title>ack_addr&#45;&gt;send_data</title>
<path fill="none" stroke="#000000" d="M153.8626,-296.9473C156.0153,-276.0823 159.5841,-241.4928 162.1007,-217.1006"/>
<polygon fill="#000000" stroke="#000000" points="165.596,-217.3257 163.1409,-207.0192 158.633,-216.6072 165.596,-217.3257"/>
<text text-anchor="start" x="156" y="-271" font-family="Helvetica,sans-Serif" font-size="10.00" fill="#000000">not (addrin[0] == 1&#39;b1) &#160;&#160;</text>
</g>
<!-- ack_data -->
<g id="node6" class="node state regular">
<title>ack_data</title>
<polygon fill="#ffffff" fill-opacity="0.003922" stroke="transparent" stroke-width="2" points="113,-134 43,-134 43,-98 113,-98 113,-134"/>
<text text-anchor="start" x="53.6556" y="-112.2" font-family="Helvetica,sans-Serif" font-size="12.00" fill="#000000">ack_data</text>
<path fill="none" stroke="#000000" stroke-width="2" d="M55.3333,-99C55.3333,-99 100.6667,-99 100.6667,-99 106.3333,-99 112,-104.6667 112,-110.3333 112,-110.3333 112,-121.6667 112,-121.6667 112,-127.3333 106.3333,-133 100.6667,-133 100.6667,-133 55.3333,-133 55.3333,-133 49.6667,-133 44,-127.3333 44,-121.6667 44,-121.6667 44,-110.3333 44,-110.3333 44,-104.6667 49.6667,-99 55.3333,-99"/>
</g>
<!-- store_data&#45;&gt;ack_data -->
<g id="edge6" class="edge transition">
<title>store_data&#45;&gt;ack_data</title>
<path fill="none" stroke="#000000" d="M65.3109,-214.9752C67.7262,-196.1356 71.5498,-166.3112 74.3691,-144.3213"/>
<polygon fill="#000000" stroke="#000000" points="77.8616,-144.602 75.6618,-134.2381 70.9185,-143.7118 77.8616,-144.602"/>
<text text-anchor="start" x="73" y="-154" font-family="Helvetica,sans-Serif" font-size="10.00" fill="#000000">not (i &lt;= 7) &#160;&#160;</text>
</g>
<!-- stop -->
<g id="node7" class="node state regular">
<title>stop</title>
<polygon fill="#ffffff" fill-opacity="0.003922" stroke="transparent" stroke-width="2" points="193,-52 137,-52 137,-16 193,-16 193,-52"/>
<text text-anchor="start" x="153.6618" y="-30.2" font-family="Helvetica,sans-Serif" font-size="12.00" fill="#000000">stop</text>
<path fill="none" stroke="#000000" stroke-width="2" d="M149.3333,-17C149.3333,-17 180.6667,-17 180.6667,-17 186.3333,-17 192,-22.6667 192,-28.3333 192,-28.3333 192,-39.6667 192,-39.6667 192,-45.3333 186.3333,-51 180.6667,-51 180.6667,-51 149.3333,-51 149.3333,-51 143.6667,-51 138,-45.3333 138,-39.6667 138,-39.6667 138,-28.3333 138,-28.3333 138,-22.6667 143.6667,-17 149.3333,-17"/>
</g>
<!-- ack_data&#45;&gt;stop -->
<g id="edge7" class="edge transition">
<title>ack_data&#45;&gt;stop</title>
<path fill="none" stroke="#000000" d="M97.3081,-97.8015C109.3602,-86.4422 125.0449,-71.6588 138.2813,-59.1831"/>
<polygon fill="#000000" stroke="#000000" points="140.8694,-61.5535 145.7459,-52.1476 136.0681,-56.4595 140.8694,-61.5535"/>
<text text-anchor="middle" x="128.3895" y="-72" font-family="Helvetica,sans-Serif" font-size="10.00" fill="#000000"> </text>
</g>
<!-- stop&#45;&gt;start -->
<g id="edge8" class="edge transition">
<title>stop&#45;&gt;start</title>
<path fill="none" stroke="#000000" d="M193.0481,-35.8833C236.7161,-39.5956 316,-49.805 316,-75 316,-438 316,-438 316,-438 316,-460.1741 252.4168,-470.9596 209.4596,-475.7161"/>
<polygon fill="#000000" stroke="#000000" points="208.8859,-472.2568 199.3017,-476.7727 209.6102,-479.2193 208.8859,-472.2568"/>
<text text-anchor="start" x="316" y="-271" font-family="Helvetica,sans-Serif" font-size="10.00" fill="#000000">(scl == 1&#39;b1) &amp;&amp; (sda == 1&#39;b1) &#160;&#160;</text>
</g>
<!-- stop&#45;&gt;stop -->
<g id="edge9" class="edge transition">
<title>stop&#45;&gt;stop</title>
<path fill="none" stroke="#000000" d="M193.0183,-38.8247C204.888,-39.1883 215,-37.5801 215,-34 215,-31.5387 210.2205,-30.0094 203.3762,-29.4121"/>
<polygon fill="#000000" stroke="#000000" points="203.0957,-25.9049 193.0183,-29.1753 202.9356,-32.903 203.0957,-25.9049"/>
<text text-anchor="start" x="215" y="-31" font-family="Helvetica,sans-Serif" font-size="10.00" fill="#000000">not ((scl == 1&#39;b1) &amp;&amp; (sda == 1&#39;b1)) &#160;&#160;</text>
</g>
<!-- send_data&#45;&gt;stop -->
<g id="edge10" class="edge transition">
<title>send_data&#45;&gt;stop</title>
<path fill="none" stroke="#000000" d="M165,-170.8921C165,-162.29 165,-151.8646 165,-142.5 165,-142.5 165,-142.5 165,-75 165,-70.9516 165,-66.6784 165,-62.48"/>
<polygon fill="#000000" stroke="#000000" points="168.5001,-62.3687 165,-52.3688 161.5001,-62.3688 168.5001,-62.3687"/>
<text text-anchor="start" x="165" y="-113" font-family="Helvetica,sans-Serif" font-size="10.00" fill="#000000">not (i &lt;= 7) &#160;&#160;</text>
</g>
</g>
</svg>
