<?xml version="1.0" encoding="UTF-8" standalone="no"?>
<!DOCTYPE svg PUBLIC "-//W3C//DTD SVG 1.1//EN"
 "http://www.w3.org/Graphics/SVG/1.1/DTD/svg11.dtd">
<!-- Generated by graphviz version 2.40.1 (20161225.0304)
 -->
<!-- Title: state transitions Pages: 1 -->
<svg width="230pt" height="270pt"
 viewBox="0.00 0.00 230.00 270.00" xmlns="http://www.w3.org/2000/svg" xmlns:xlink="http://www.w3.org/1999/xlink">
<g id="graph0" class="graph" transform="scale(1 1) rotate(0) translate(4 266)">
<title>state transitions</title>
<polygon fill="#ffffff" stroke="transparent" points="-4,4 -4,-266 226,-266 226,4 -4,4"/>
<g id="clust1" class="cluster state regular">
<title>cluster_awnext_state</title>
<path fill="none" stroke="#000000" stroke-width="2" d="M20,-8C20,-8 202,-8 202,-8 208,-8 214,-14 214,-20 214,-20 214,-242 214,-242 214,-248 208,-254 202,-254 202,-254 20,-254 20,-254 14,-254 8,-248 8,-242 8,-242 8,-20 8,-20 8,-14 14,-8 20,-8"/>
<text text-anchor="start" x="75.654" y="-235.2" font-family="Helvetica,sans-Serif" font-size="12.00" fill="#000000">awnext_state</text>
</g>
<!-- awnext_state -->
<!-- awidle -->
<g id="node2" class="node state regular">
<title>awidle</title>
<polygon fill="#ffffff" fill-opacity="0.003922" stroke="transparent" stroke-width="2" points="102,-216 46,-216 46,-180 102,-180 102,-216"/>
<text text-anchor="start" x="56.9996" y="-194.2" font-family="Helvetica,sans-Serif" font-size="12.00" fill="#000000">awidle</text>
<path fill="none" stroke="#000000" stroke-width="2" d="M58.3333,-181C58.3333,-181 89.6667,-181 89.6667,-181 95.3333,-181 101,-186.6667 101,-192.3333 101,-192.3333 101,-203.6667 101,-203.6667 101,-209.3333 95.3333,-215 89.6667,-215 89.6667,-215 58.3333,-215 58.3333,-215 52.6667,-215 47,-209.3333 47,-203.6667 47,-203.6667 47,-192.3333 47,-192.3333 47,-186.6667 52.6667,-181 58.3333,-181"/>
</g>
<!-- awstart -->
<g id="node3" class="node state regular">
<title>awstart</title>
<polygon fill="#ffffff" fill-opacity="0.003922" stroke="transparent" stroke-width="2" points="76,-134 16,-134 16,-98 76,-98 76,-134"/>
<text text-anchor="start" x="26.6656" y="-112.2" font-family="Helvetica,sans-Serif" font-size="12.00" fill="#000000">awstart</text>
<path fill="none" stroke="#000000" stroke-width="2" d="M28.3333,-99C28.3333,-99 63.6667,-99 63.6667,-99 69.3333,-99 75,-104.6667 75,-110.3333 75,-110.3333 75,-121.6667 75,-121.6667 75,-127.3333 69.3333,-133 63.6667,-133 63.6667,-133 28.3333,-133 28.3333,-133 22.6667,-133 17,-127.3333 17,-121.6667 17,-121.6667 17,-110.3333 17,-110.3333 17,-104.6667 22.6667,-99 28.3333,-99"/>
</g>
<!-- awidle&#45;&gt;awstart -->
<g id="edge1" class="edge transition">
<title>awidle&#45;&gt;awstart</title>
<path fill="none" stroke="#000000" d="M67.7859,-179.8015C64.1608,-169.1853 59.5146,-155.5784 55.4448,-143.6596"/>
<polygon fill="#000000" stroke="#000000" points="58.7405,-142.4801 52.1967,-134.1476 52.116,-144.7421 58.7405,-142.4801"/>
<text text-anchor="middle" x="62.3895" y="-154" font-family="Helvetica,sans-Serif" font-size="10.00" fill="#000000"> </text>
</g>
<!-- awstart&#45;&gt;awstart -->
<g id="edge3" class="edge transition">
<title>awstart&#45;&gt;awstart</title>
<path fill="none" stroke="#000000" d="M76.185,-120.8509C88.0717,-121.0955 98,-119.4785 98,-116 98,-113.6085 93.3073,-112.0969 86.5118,-111.4652"/>
<polygon fill="#000000" stroke="#000000" points="86.2874,-107.9568 76.185,-111.1491 86.0732,-114.9535 86.2874,-107.9568"/>
<text text-anchor="start" x="98" y="-113" font-family="Helvetica,sans-Serif" font-size="10.00" fill="#000000">not (awvalid) &#160;&#160;</text>
</g>
<!-- awready -->
<g id="node4" class="node state regular">
<title>awready</title>
<polygon fill="#ffffff" fill-opacity="0.003922" stroke="transparent" stroke-width="2" points="144.5,-52 77.5,-52 77.5,-16 144.5,-16 144.5,-52"/>
<text text-anchor="start" x="88.8296" y="-30.2" font-family="Helvetica,sans-Serif" font-size="12.00" fill="#000000">awready</text>
<path fill="none" stroke="#000000" stroke-width="2" d="M89.8333,-17C89.8333,-17 132.1667,-17 132.1667,-17 137.8333,-17 143.5,-22.6667 143.5,-28.3333 143.5,-28.3333 143.5,-39.6667 143.5,-39.6667 143.5,-45.3333 137.8333,-51 132.1667,-51 132.1667,-51 89.8333,-51 89.8333,-51 84.1667,-51 78.5,-45.3333 78.5,-39.6667 78.5,-39.6667 78.5,-28.3333 78.5,-28.3333 78.5,-22.6667 84.1667,-17 89.8333,-17"/>
</g>
<!-- awstart&#45;&gt;awready -->
<g id="edge2" class="edge transition">
<title>awstart&#45;&gt;awready</title>
<path fill="none" stroke="#000000" d="M60.4256,-97.8015C69.1775,-86.7606 80.4935,-72.4851 90.2018,-60.2378"/>
<polygon fill="#000000" stroke="#000000" points="93.1456,-62.1584 96.6147,-52.1476 87.6599,-57.81 93.1456,-62.1584"/>
<text text-anchor="start" x="82" y="-72" font-family="Helvetica,sans-Serif" font-size="10.00" fill="#000000">awvalid &#160;&#160;</text>
</g>
<!-- awready&#45;&gt;awidle -->
<g id="edge4" class="edge transition">
<title>awready&#45;&gt;awidle</title>
<path fill="none" stroke="#000000" d="M144.735,-42.3711C170.9918,-49.9054 203,-61.7977 203,-75 203,-157 203,-157 203,-157 203,-166.6265 150.1504,-180.727 112.1058,-189.6302"/>
<polygon fill="#000000" stroke="#000000" points="111.2694,-186.2312 102.3096,-191.8857 112.84,-193.0527 111.2694,-186.2312"/>
<text text-anchor="middle" x="204.3895" y="-113" font-family="Helvetica,sans-Serif" font-size="10.00" fill="#000000"> </text>
</g>
</g>
</svg>
