<?xml version="1.0" encoding="UTF-8" standalone="no"?>
<!DOCTYPE svg PUBLIC "-//W3C//DTD SVG 1.1//EN"
 "http://www.w3.org/Graphics/SVG/1.1/DTD/svg11.dtd">
<!-- Generated by graphviz version 2.40.1 (20161225.0304)
 -->
<!-- Title: state transitions Pages: 1 -->
<svg width="725pt" height="434pt"
 viewBox="0.00 0.00 725.00 434.00" xmlns="http://www.w3.org/2000/svg" xmlns:xlink="http://www.w3.org/1999/xlink">
<g id="graph0" class="graph" transform="scale(1 1) rotate(0) translate(4 430)">
<title>state transitions</title>
<polygon fill="#ffffff" stroke="transparent" points="-4,4 -4,-430 721,-430 721,4 -4,4"/>
<g id="clust1" class="cluster state regular">
<title>cluster_rnext_state</title>
<path fill="none" stroke="#000000" stroke-width="2" d="M20,-8C20,-8 697,-8 697,-8 703,-8 709,-14 709,-20 709,-20 709,-406 709,-406 709,-412 703,-418 697,-418 697,-418 20,-418 20,-418 14,-418 8,-412 8,-406 8,-406 8,-20 8,-20 8,-14 14,-8 20,-8"/>
<text text-anchor="start" x="329.3234" y="-399.2" font-family="Helvetica,sans-Serif" font-size="12.00" fill="#000000">rnext_state</text>
</g>
<!-- rnext_state -->
<!-- ridle -->
<g id="node2" class="node state regular">
<title>ridle</title>
<polygon fill="#ffffff" fill-opacity="0.003922" stroke="transparent" stroke-width="2" points="451,-380 395,-380 395,-344 451,-344 451,-380"/>
<text text-anchor="start" x="411.669" y="-358.2" font-family="Helvetica,sans-Serif" font-size="12.00" fill="#000000">ridle</text>
<path fill="none" stroke="#000000" stroke-width="2" d="M407.3333,-345C407.3333,-345 438.6667,-345 438.6667,-345 444.3333,-345 450,-350.6667 450,-356.3333 450,-356.3333 450,-367.6667 450,-367.6667 450,-373.3333 444.3333,-379 438.6667,-379 438.6667,-379 407.3333,-379 407.3333,-379 401.6667,-379 396,-373.3333 396,-367.6667 396,-367.6667 396,-356.3333 396,-356.3333 396,-350.6667 401.6667,-345 407.3333,-345"/>
</g>
<!-- ridle&#45;&gt;ridle -->
<g id="edge2" class="edge transition">
<title>ridle&#45;&gt;ridle</title>
<path fill="none" stroke="#000000" d="M451.0183,-366.8247C462.888,-367.1883 473,-365.5801 473,-362 473,-359.5387 468.2205,-358.0094 461.3762,-357.4121"/>
<polygon fill="#000000" stroke="#000000" points="461.0957,-353.9049 451.0183,-357.1753 460.9356,-360.903 461.0957,-353.9049"/>
<text text-anchor="start" x="473" y="-359" font-family="Helvetica,sans-Serif" font-size="10.00" fill="#000000">not (arvalid) &#160;&#160;</text>
</g>
<!-- rstate -->
<g id="node3" class="node state regular">
<title>rstate</title>
<polygon fill="#ffffff" fill-opacity="0.003922" stroke="transparent" stroke-width="2" points="341,-298 285,-298 285,-262 341,-262 341,-298"/>
<text text-anchor="start" x="297.997" y="-276.2" font-family="Helvetica,sans-Serif" font-size="12.00" fill="#000000">rstate</text>
<path fill="none" stroke="#000000" stroke-width="2" d="M297.3333,-263C297.3333,-263 328.6667,-263 328.6667,-263 334.3333,-263 340,-268.6667 340,-274.3333 340,-274.3333 340,-285.6667 340,-285.6667 340,-291.3333 334.3333,-297 328.6667,-297 328.6667,-297 297.3333,-297 297.3333,-297 291.6667,-297 286,-291.3333 286,-285.6667 286,-285.6667 286,-274.3333 286,-274.3333 286,-268.6667 291.6667,-263 297.3333,-263"/>
</g>
<!-- ridle&#45;&gt;rstate -->
<g id="edge1" class="edge transition">
<title>ridle&#45;&gt;rstate</title>
<path fill="none" stroke="#000000" d="M398.5874,-343.8015C382.922,-332.1237 362.4023,-316.8272 345.382,-304.1393"/>
<polygon fill="#000000" stroke="#000000" points="347.4536,-301.3182 337.3443,-298.1476 343.27,-306.9304 347.4536,-301.3182"/>
<text text-anchor="start" x="375" y="-318" font-family="Helvetica,sans-Serif" font-size="10.00" fill="#000000">arvalid &#160;&#160;</text>
</g>
<!-- rwait -->
<g id="node4" class="node state regular">
<title>rwait</title>
<polygon fill="#ffffff" fill-opacity="0.003922" stroke="transparent" stroke-width="2" points="411,-216 355,-216 355,-180 411,-180 411,-216"/>
<text text-anchor="start" x="370.337" y="-194.2" font-family="Helvetica,sans-Serif" font-size="12.00" fill="#000000">rwait</text>
<path fill="none" stroke="#000000" stroke-width="2" d="M367.3333,-181C367.3333,-181 398.6667,-181 398.6667,-181 404.3333,-181 410,-186.6667 410,-192.3333 410,-192.3333 410,-203.6667 410,-203.6667 410,-209.3333 404.3333,-215 398.6667,-215 398.6667,-215 367.3333,-215 367.3333,-215 361.6667,-215 356,-209.3333 356,-203.6667 356,-203.6667 356,-192.3333 356,-192.3333 356,-186.6667 361.6667,-181 367.3333,-181"/>
</g>
<!-- rstate&#45;&gt;rwait -->
<g id="edge3" class="edge transition">
<title>rstate&#45;&gt;rwait</title>
<path fill="none" stroke="#000000" d="M328.5353,-261.8015C338.0511,-250.6545 350.3815,-236.2103 360.903,-223.8851"/>
<polygon fill="#000000" stroke="#000000" points="363.6775,-226.0257 367.5082,-216.1476 358.3535,-221.4808 363.6775,-226.0257"/>
<text text-anchor="start" x="352" y="-236" font-family="Helvetica,sans-Serif" font-size="10.00" fill="#000000">(araddrt &lt; 18) &amp;&amp; (arsize &lt;= 3&#39;b010) &#160;&#160;</text>
</g>
<!-- rerror -->
<g id="node6" class="node state regular">
<title>rerror</title>
<polygon fill="#ffffff" fill-opacity="0.003922" stroke="transparent" stroke-width="2" points="249,-216 193,-216 193,-180 249,-180 249,-216"/>
<text text-anchor="start" x="206.3396" y="-194.2" font-family="Helvetica,sans-Serif" font-size="12.00" fill="#000000">rerror</text>
<path fill="none" stroke="#000000" stroke-width="2" d="M205.3333,-181C205.3333,-181 236.6667,-181 236.6667,-181 242.3333,-181 248,-186.6667 248,-192.3333 248,-192.3333 248,-203.6667 248,-203.6667 248,-209.3333 242.3333,-215 236.6667,-215 236.6667,-215 205.3333,-215 205.3333,-215 199.6667,-215 194,-209.3333 194,-203.6667 194,-203.6667 194,-192.3333 194,-192.3333 194,-186.6667 199.6667,-181 205.3333,-181"/>
</g>
<!-- rstate&#45;&gt;rerror -->
<g id="edge4" class="edge transition">
<title>rstate&#45;&gt;rerror</title>
<path fill="none" stroke="#000000" d="M284.8901,-278.2518C221.0699,-273.9968 69.5829,-262.1752 54.577,-245 51.0679,-240.9837 51.2162,-237.1412 54.577,-233 70.4235,-213.4742 138.8675,-204.4368 182.8954,-200.575"/>
<polygon fill="#000000" stroke="#000000" points="183.2957,-204.054 192.9739,-199.7433 182.7199,-197.0777 183.2957,-204.054"/>
<text text-anchor="start" x="54" y="-236" font-family="Helvetica,sans-Serif" font-size="10.00" fill="#000000">(araddr &gt; 128) &amp;&amp; (arsize &lt;= 3&#39;b010) &#160;&#160;</text>
</g>
<!-- rstate&#45;&gt;rerror -->
<g id="edge5" class="edge transition">
<title>rstate&#45;&gt;rerror</title>
<path fill="none" stroke="#000000" d="M284.8052,-262.7323C276.9784,-257.4337 268.688,-251.3223 261.596,-245 254.6543,-238.8117 247.782,-231.4583 241.7203,-224.4272"/>
<polygon fill="#000000" stroke="#000000" points="244.1193,-221.8397 235.0212,-216.4105 238.7478,-226.3283 244.1193,-221.8397"/>
<text text-anchor="start" x="261" y="-236" font-family="Helvetica,sans-Serif" font-size="10.00" fill="#000000">arsize &gt; 3&#39;b010 &#160;&#160;</text>
</g>
<!-- rwait&#45;&gt;rwait -->
<g id="edge7" class="edge transition">
<title>rwait&#45;&gt;rwait</title>
<path fill="none" stroke="#000000" d="M411.0183,-202.8247C422.888,-203.1883 433,-201.5801 433,-198 433,-195.5387 428.2205,-194.0094 421.3762,-193.4121"/>
<polygon fill="#000000" stroke="#000000" points="421.0957,-189.9049 411.0183,-193.1753 420.9356,-196.903 421.0957,-189.9049"/>
<text text-anchor="start" x="433" y="-195" font-family="Helvetica,sans-Serif" font-size="10.00" fill="#000000">not (rready == 1&#39;b1) &#160;&#160;</text>
</g>
<!-- rvalid -->
<g id="node5" class="node state regular">
<title>rvalid</title>
<polygon fill="#ffffff" fill-opacity="0.003922" stroke="transparent" stroke-width="2" points="422,-134 366,-134 366,-98 422,-98 422,-134"/>
<text text-anchor="start" x="379.669" y="-112.2" font-family="Helvetica,sans-Serif" font-size="12.00" fill="#000000">rvalid</text>
<path fill="none" stroke="#000000" stroke-width="2" d="M378.3333,-99C378.3333,-99 409.6667,-99 409.6667,-99 415.3333,-99 421,-104.6667 421,-110.3333 421,-110.3333 421,-121.6667 421,-121.6667 421,-127.3333 415.3333,-133 409.6667,-133 409.6667,-133 378.3333,-133 378.3333,-133 372.6667,-133 367,-127.3333 367,-121.6667 367,-121.6667 367,-110.3333 367,-110.3333 367,-104.6667 372.6667,-99 378.3333,-99"/>
</g>
<!-- rwait&#45;&gt;rvalid -->
<g id="edge6" class="edge transition">
<title>rwait&#45;&gt;rvalid</title>
<path fill="none" stroke="#000000" d="M385.4413,-179.8015C386.8369,-169.3976 388.6178,-156.1215 390.1934,-144.3768"/>
<polygon fill="#000000" stroke="#000000" points="393.7049,-144.5242 391.5656,-134.1476 386.767,-143.5934 393.7049,-144.5242"/>
<text text-anchor="start" x="389" y="-154" font-family="Helvetica,sans-Serif" font-size="10.00" fill="#000000">rready == 1&#39;b1 &#160;&#160;</text>
</g>
<!-- rvalid&#45;&gt;ridle -->
<g id="edge8" class="edge transition">
<title>rvalid&#45;&gt;ridle</title>
<path fill="none" stroke="#000000" d="M422.3303,-119.1408C475.7383,-125.4472 586,-140.4688 586,-157 586,-321 586,-321 586,-321 586,-346.6222 509.2944,-356.3851 461.1222,-359.9901"/>
<polygon fill="#000000" stroke="#000000" points="460.7556,-356.5069 451.0207,-360.688 461.2382,-363.4903 460.7556,-356.5069"/>
<text text-anchor="start" x="586" y="-236" font-family="Helvetica,sans-Serif" font-size="10.00" fill="#000000">len_count == (arlen + 1) &#160;&#160;</text>
</g>
<!-- rstart -->
<g id="node7" class="node state regular">
<title>rstart</title>
<polygon fill="#ffffff" fill-opacity="0.003922" stroke="transparent" stroke-width="2" points="288,-52 232,-52 232,-16 288,-16 288,-52"/>
<text text-anchor="start" x="246.335" y="-30.2" font-family="Helvetica,sans-Serif" font-size="12.00" fill="#000000">rstart</text>
<path fill="none" stroke="#ff0000" stroke-width="2" d="M244.3333,-17C244.3333,-17 275.6667,-17 275.6667,-17 281.3333,-17 287,-22.6667 287,-28.3333 287,-28.3333 287,-39.6667 287,-39.6667 287,-45.3333 281.3333,-51 275.6667,-51 275.6667,-51 244.3333,-51 244.3333,-51 238.6667,-51 233,-45.3333 233,-39.6667 233,-39.6667 233,-28.3333 233,-28.3333 233,-22.6667 238.6667,-17 244.3333,-17"/>
</g>
<!-- rvalid&#45;&gt;rstart -->
<g id="edge9" class="edge transition">
<title>rvalid&#45;&gt;rstart</title>
<path fill="none" stroke="#ff0000" d="M365.9092,-98.8101C345.8088,-86.5099 318.5584,-69.8342 296.7331,-56.4785"/>
<polygon fill="#ff0000" stroke="#ff0000" points="298.4104,-53.4016 288.0538,-51.1673 294.7566,-59.3723 298.4104,-53.4016"/>
<text text-anchor="start" x="335" y="-72" font-family="Helvetica,sans-Serif" font-size="10.00" fill="#ff0000">not (len_count == (arlen + 1)) &#160;&#160;</text>
</g>
<!-- rerror&#45;&gt;rvalid -->
<g id="edge10" class="edge transition">
<title>rerror&#45;&gt;rvalid</title>
<path fill="none" stroke="#000000" d="M234.5283,-179.8647C242.8907,-169.903 254.4497,-158.153 267.236,-151 296.5972,-134.5746 308.6387,-143.199 341,-134 345.9555,-132.5913 351.1315,-130.9942 356.2242,-129.347"/>
<polygon fill="#000000" stroke="#000000" points="357.4486,-132.6284 365.8351,-126.1541 355.2416,-125.9854 357.4486,-132.6284"/>
<text text-anchor="start" x="267" y="-154" font-family="Helvetica,sans-Serif" font-size="10.00" fill="#000000">len_count == (arlen + 1) &#160;&#160;</text>
</g>
<!-- rerror&#45;&gt;rstart -->
<g id="edge11" class="edge transition">
<title>rerror&#45;&gt;rstart</title>
<path fill="none" stroke="#ff0000" d="M205.7868,-179.9728C201.5095,-173.203 198,-165.1616 198,-157 198,-157 198,-157 198,-75 198,-60.8776 209.3304,-51.3369 222.3039,-45.0415"/>
<polygon fill="#ff0000" stroke="#ff0000" points="224.0368,-48.1099 231.9025,-41.0119 221.3272,-41.6556 224.0368,-48.1099"/>
<text text-anchor="start" x="198" y="-113" font-family="Helvetica,sans-Serif" font-size="10.00" fill="#ff0000">not (len_count == (arlen + 1)) &#160;&#160;</text>
</g>
</g>
</svg>
