<?xml version="1.0" encoding="UTF-8" standalone="no"?>
<!DOCTYPE svg PUBLIC "-//W3C//DTD SVG 1.1//EN"
 "http://www.w3.org/Graphics/SVG/1.1/DTD/svg11.dtd">
<!-- Generated by graphviz version 2.40.1 (20161225.0304)
 -->
<!-- Title: state transitions Pages: 1 -->
<svg width="232pt" height="352pt"
 viewBox="0.00 0.00 232.02 352.00" xmlns="http://www.w3.org/2000/svg" xmlns:xlink="http://www.w3.org/1999/xlink">
<g id="graph0" class="graph" transform="scale(1 1) rotate(0) translate(4 348)">
<title>state transitions</title>
<polygon fill="#ffffff" stroke="transparent" points="-4,4 -4,-348 228.024,-348 228.024,4 -4,4"/>
<g id="clust1" class="cluster state regular">
<title>cluster_bnext_state</title>
<path fill="none" stroke="#000000" stroke-width="2" d="M20,-8C20,-8 194,-8 194,-8 200,-8 206,-14 206,-20 206,-20 206,-324 206,-324 206,-330 200,-336 194,-336 194,-336 20,-336 20,-336 14,-336 8,-330 8,-324 8,-324 8,-20 8,-20 8,-14 14,-8 20,-8"/>
<text text-anchor="start" x="75.9854" y="-317.2" font-family="Helvetica,sans-Serif" font-size="12.00" fill="#000000">bnext_state</text>
</g>
<!-- bnext_state -->
<!-- bidle -->
<g id="node2" class="node state regular">
<title>bidle</title>
<polygon fill="#ffffff" fill-opacity="0.003922" stroke="transparent" stroke-width="2" points="110,-298 54,-298 54,-262 110,-262 110,-298"/>
<text text-anchor="start" x="69.331" y="-276.2" font-family="Helvetica,sans-Serif" font-size="12.00" fill="#000000">bidle</text>
<path fill="none" stroke="#000000" stroke-width="2" d="M66.3333,-263C66.3333,-263 97.6667,-263 97.6667,-263 103.3333,-263 109,-268.6667 109,-274.3333 109,-274.3333 109,-285.6667 109,-285.6667 109,-291.3333 103.3333,-297 97.6667,-297 97.6667,-297 66.3333,-297 66.3333,-297 60.6667,-297 55,-291.3333 55,-285.6667 55,-285.6667 55,-274.3333 55,-274.3333 55,-268.6667 60.6667,-263 66.3333,-263"/>
</g>
<!-- bdetect_last -->
<g id="node3" class="node state regular">
<title>bdetect_last</title>
<polygon fill="#ffffff" fill-opacity="0.003922" stroke="transparent" stroke-width="2" points="102,-216 16,-216 16,-180 102,-180 102,-216"/>
<text text-anchor="start" x="26.654" y="-194.2" font-family="Helvetica,sans-Serif" font-size="12.00" fill="#000000">bdetect_last</text>
<path fill="none" stroke="#000000" stroke-width="2" d="M28.3333,-181C28.3333,-181 89.6667,-181 89.6667,-181 95.3333,-181 101,-186.6667 101,-192.3333 101,-192.3333 101,-203.6667 101,-203.6667 101,-209.3333 95.3333,-215 89.6667,-215 89.6667,-215 28.3333,-215 28.3333,-215 22.6667,-215 17,-209.3333 17,-203.6667 17,-203.6667 17,-192.3333 17,-192.3333 17,-186.6667 22.6667,-181 28.3333,-181"/>
</g>
<!-- bidle&#45;&gt;bdetect_last -->
<g id="edge1" class="edge transition">
<title>bidle&#45;&gt;bdetect_last</title>
<path fill="none" stroke="#000000" d="M76.8956,-261.8015C73.9476,-251.2915 70.1775,-237.8503 66.8586,-226.0177"/>
<polygon fill="#000000" stroke="#000000" points="70.1609,-224.8308 64.0902,-216.1476 63.421,-226.7213 70.1609,-224.8308"/>
<text text-anchor="middle" x="73.3895" y="-236" font-family="Helvetica,sans-Serif" font-size="10.00" fill="#000000"> </text>
</g>
<!-- bdetect_last&#45;&gt;bdetect_last -->
<g id="edge3" class="edge transition">
<title>bdetect_last&#45;&gt;bdetect_last</title>
<path fill="none" stroke="#000000" d="M102.1303,-202.856C114.4785,-202.6655 124,-201.0469 124,-198 124,-195.8577 119.2927,-194.4214 112.2054,-193.6913"/>
<polygon fill="#000000" stroke="#000000" points="112.3055,-190.1916 102.1303,-193.144 111.9258,-197.1813 112.3055,-190.1916"/>
<text text-anchor="start" x="124" y="-195" font-family="Helvetica,sans-Serif" font-size="10.00" fill="#000000">not (wlast) &#160;&#160;</text>
</g>
<!-- bstart -->
<g id="node4" class="node state regular">
<title>bstart</title>
<polygon fill="#ffffff" fill-opacity="0.003922" stroke="transparent" stroke-width="2" points="77,-134 21,-134 21,-98 77,-98 77,-134"/>
<text text-anchor="start" x="33.997" y="-112.2" font-family="Helvetica,sans-Serif" font-size="12.00" fill="#000000">bstart</text>
<path fill="none" stroke="#000000" stroke-width="2" d="M33.3333,-99C33.3333,-99 64.6667,-99 64.6667,-99 70.3333,-99 76,-104.6667 76,-110.3333 76,-110.3333 76,-121.6667 76,-121.6667 76,-127.3333 70.3333,-133 64.6667,-133 64.6667,-133 33.3333,-133 33.3333,-133 27.6667,-133 22,-127.3333 22,-121.6667 22,-121.6667 22,-110.3333 22,-110.3333 22,-104.6667 27.6667,-99 33.3333,-99"/>
</g>
<!-- bdetect_last&#45;&gt;bstart -->
<g id="edge2" class="edge transition">
<title>bdetect_last&#45;&gt;bstart</title>
<path fill="none" stroke="#000000" d="M56.7807,-179.8015C55.5119,-169.3976 53.8929,-156.1215 52.4606,-144.3768"/>
<polygon fill="#000000" stroke="#000000" points="55.898,-143.6503 51.2131,-134.1476 48.9495,-144.4978 55.898,-143.6503"/>
<text text-anchor="start" x="54" y="-154" font-family="Helvetica,sans-Serif" font-size="10.00" fill="#000000">wlast &#160;&#160;</text>
</g>
<!-- bwait -->
<g id="node5" class="node state regular">
<title>bwait</title>
<polygon fill="#ffffff" fill-opacity="0.003922" stroke="transparent" stroke-width="2" points="81,-52 25,-52 25,-16 81,-16 81,-52"/>
<text text-anchor="start" x="38.999" y="-30.2" font-family="Helvetica,sans-Serif" font-size="12.00" fill="#000000">bwait</text>
<path fill="none" stroke="#000000" stroke-width="2" d="M37.3333,-17C37.3333,-17 68.6667,-17 68.6667,-17 74.3333,-17 80,-22.6667 80,-28.3333 80,-28.3333 80,-39.6667 80,-39.6667 80,-45.3333 74.3333,-51 68.6667,-51 68.6667,-51 37.3333,-51 37.3333,-51 31.6667,-51 26,-45.3333 26,-39.6667 26,-39.6667 26,-28.3333 26,-28.3333 26,-22.6667 31.6667,-17 37.3333,-17"/>
</g>
<!-- bstart&#45;&gt;bwait -->
<g id="edge4" class="edge transition">
<title>bstart&#45;&gt;bwait</title>
<path fill="none" stroke="#000000" d="M49.8877,-97.8015C50.3952,-87.3976 51.0429,-74.1215 51.6158,-62.3768"/>
<polygon fill="#000000" stroke="#000000" points="55.1233,-62.3063 52.1148,-52.1476 48.1316,-61.9651 55.1233,-62.3063"/>
<text text-anchor="middle" x="52.3895" y="-72" font-family="Helvetica,sans-Serif" font-size="10.00" fill="#000000"> </text>
</g>
<!-- bwait&#45;&gt;bidle -->
<g id="edge5" class="edge transition">
<title>bwait&#45;&gt;bidle</title>
<path fill="none" stroke="#000000" d="M81.0683,-38.922C100.5429,-44.1371 123,-54.5783 123,-75 123,-142.5 123,-142.5 123,-142.5 123,-174.7038 169.183,-151.9481 185,-180 192.8585,-193.9372 192.7746,-202.0159 185,-216 171.0638,-241.0668 142.792,-257.5788 119.3884,-267.5423"/>
<polygon fill="#000000" stroke="#000000" points="118.0195,-264.3203 110.0424,-271.2929 120.6266,-270.8167 118.0195,-264.3203"/>
<text text-anchor="start" x="149" y="-154" font-family="Helvetica,sans-Serif" font-size="10.00" fill="#000000">bready == 1&#39;b1 &#160;&#160;</text>
</g>
<!-- bwait&#45;&gt;bwait -->
<g id="edge6" class="edge transition">
<title>bwait&#45;&gt;bwait</title>
<path fill="none" stroke="#000000" d="M81.0183,-38.8247C92.888,-39.1883 103,-37.5801 103,-34 103,-31.5387 98.2205,-30.0094 91.3762,-29.4121"/>
<polygon fill="#000000" stroke="#000000" points="91.0957,-25.9049 81.0183,-29.1753 90.9356,-32.903 91.0957,-25.9049"/>
<text text-anchor="start" x="103" y="-31" font-family="Helvetica,sans-Serif" font-size="10.00" fill="#000000">not (bready == 1&#39;b1) &#160;&#160;</text>
</g>
</g>
</svg>
