<?xml version="1.0" encoding="UTF-8" standalone="no"?>
<!DOCTYPE svg PUBLIC "-//W3C//DTD SVG 1.1//EN"
 "http://www.w3.org/Graphics/SVG/1.1/DTD/svg11.dtd">
<!-- Generated by graphviz version 2.40.1 (20161225.0304)
 -->
<!-- Title: state transitions Pages: 1 -->
<svg width="242pt" height="434pt"
 viewBox="0.00 0.00 242.24 434.00" xmlns="http://www.w3.org/2000/svg" xmlns:xlink="http://www.w3.org/1999/xlink">
<g id="graph0" class="graph" transform="scale(1 1) rotate(0) translate(4 430)">
<title>state transitions</title>
<polygon fill="#ffffff" stroke="transparent" points="-4,4 -4,-430 238.235,-430 238.235,4 -4,4"/>
<g id="clust1" class="cluster state regular">
<title>cluster_wnext_state</title>
<path fill="none" stroke="#000000" stroke-width="2" d="M20,-8C20,-8 205,-8 205,-8 211,-8 217,-14 217,-20 217,-20 217,-406 217,-406 217,-412 211,-418 205,-418 205,-418 20,-418 20,-418 14,-418 8,-412 8,-406 8,-406 8,-20 8,-20 8,-14 14,-8 20,-8"/>
<text text-anchor="start" x="80.4894" y="-399.2" font-family="Helvetica,sans-Serif" font-size="12.00" fill="#000000">wnext_state</text>
</g>
<!-- wnext_state -->
<!-- widle -->
<g id="node2" class="node state regular">
<title>widle</title>
<polygon fill="#ffffff" fill-opacity="0.003922" stroke="transparent" stroke-width="2" points="101,-380 45,-380 45,-344 101,-344 101,-380"/>
<text text-anchor="start" x="59.335" y="-358.2" font-family="Helvetica,sans-Serif" font-size="12.00" fill="#000000">widle</text>
<path fill="none" stroke="#000000" stroke-width="2" d="M57.3333,-345C57.3333,-345 88.6667,-345 88.6667,-345 94.3333,-345 100,-350.6667 100,-356.3333 100,-356.3333 100,-367.6667 100,-367.6667 100,-373.3333 94.3333,-379 88.6667,-379 88.6667,-379 57.3333,-379 57.3333,-379 51.6667,-379 46,-373.3333 46,-367.6667 46,-367.6667 46,-356.3333 46,-356.3333 46,-350.6667 51.6667,-345 57.3333,-345"/>
</g>
<!-- wstart -->
<g id="node3" class="node state regular">
<title>wstart</title>
<polygon fill="#ffffff" fill-opacity="0.003922" stroke="transparent" stroke-width="2" points="72,-298 16,-298 16,-262 72,-262 72,-298"/>
<text text-anchor="start" x="28.001" y="-276.2" font-family="Helvetica,sans-Serif" font-size="12.00" fill="#000000">wstart</text>
<path fill="none" stroke="#000000" stroke-width="2" d="M28.3333,-263C28.3333,-263 59.6667,-263 59.6667,-263 65.3333,-263 71,-268.6667 71,-274.3333 71,-274.3333 71,-285.6667 71,-285.6667 71,-291.3333 65.3333,-297 59.6667,-297 59.6667,-297 28.3333,-297 28.3333,-297 22.6667,-297 17,-291.3333 17,-285.6667 17,-285.6667 17,-274.3333 17,-274.3333 17,-268.6667 22.6667,-263 28.3333,-263"/>
</g>
<!-- widle&#45;&gt;wstart -->
<g id="edge1" class="edge transition">
<title>widle&#45;&gt;wstart</title>
<path fill="none" stroke="#000000" d="M66.564,-343.8015C62.8094,-333.1853 57.9973,-319.5784 53.7821,-307.6596"/>
<polygon fill="#000000" stroke="#000000" points="57.0521,-306.4084 50.418,-298.1476 50.4526,-308.7424 57.0521,-306.4084"/>
<text text-anchor="middle" x="61.3895" y="-318" font-family="Helvetica,sans-Serif" font-size="10.00" fill="#000000"> </text>
</g>
<!-- wstart&#45;&gt;wstart -->
<g id="edge3" class="edge transition">
<title>wstart&#45;&gt;wstart</title>
<path fill="none" stroke="#000000" d="M72.0183,-284.8247C83.888,-285.1883 94,-283.5801 94,-280 94,-277.5387 89.2205,-276.0094 82.3762,-275.4121"/>
<polygon fill="#000000" stroke="#000000" points="82.0957,-271.9049 72.0183,-275.1753 81.9356,-278.903 82.0957,-271.9049"/>
<text text-anchor="start" x="94" y="-277" font-family="Helvetica,sans-Serif" font-size="10.00" fill="#000000">not (wvalid) &#160;&#160;</text>
</g>
<!-- waddr_dec -->
<g id="node4" class="node state regular">
<title>waddr_dec</title>
<polygon fill="#ffffff" fill-opacity="0.003922" stroke="transparent" stroke-width="2" points="120,-216 40,-216 40,-180 120,-180 120,-216"/>
<text text-anchor="start" x="50.6588" y="-194.2" font-family="Helvetica,sans-Serif" font-size="12.00" fill="#000000">waddr_dec</text>
<path fill="none" stroke="#000000" stroke-width="2" d="M52.3333,-181C52.3333,-181 107.6667,-181 107.6667,-181 113.3333,-181 119,-186.6667 119,-192.3333 119,-192.3333 119,-203.6667 119,-203.6667 119,-209.3333 113.3333,-215 107.6667,-215 107.6667,-215 52.3333,-215 52.3333,-215 46.6667,-215 41,-209.3333 41,-203.6667 41,-203.6667 41,-192.3333 41,-192.3333 41,-186.6667 46.6667,-181 52.3333,-181"/>
</g>
<!-- wstart&#45;&gt;waddr_dec -->
<g id="edge2" class="edge transition">
<title>wstart&#45;&gt;waddr_dec</title>
<path fill="none" stroke="#000000" d="M51.9896,-261.8015C56.6504,-251.1853 62.6241,-237.5784 67.8567,-225.6596"/>
<polygon fill="#000000" stroke="#000000" points="71.2176,-226.711 72.0328,-216.1476 64.8081,-223.897 71.2176,-226.711"/>
<text text-anchor="start" x="64" y="-236" font-family="Helvetica,sans-Serif" font-size="10.00" fill="#000000">wvalid &#160;&#160;</text>
</g>
<!-- wready -->
<g id="node5" class="node state regular">
<title>wready</title>
<polygon fill="#ffffff" fill-opacity="0.003922" stroke="transparent" stroke-width="2" points="121,-134 61,-134 61,-98 121,-98 121,-134"/>
<text text-anchor="start" x="71.665" y="-112.2" font-family="Helvetica,sans-Serif" font-size="12.00" fill="#000000">wready</text>
<path fill="none" stroke="#000000" stroke-width="2" d="M73.3333,-99C73.3333,-99 108.6667,-99 108.6667,-99 114.3333,-99 120,-104.6667 120,-110.3333 120,-110.3333 120,-121.6667 120,-121.6667 120,-127.3333 114.3333,-133 108.6667,-133 108.6667,-133 73.3333,-133 73.3333,-133 67.6667,-133 62,-127.3333 62,-121.6667 62,-121.6667 62,-110.3333 62,-110.3333 62,-104.6667 67.6667,-99 73.3333,-99"/>
</g>
<!-- waddr_dec&#45;&gt;wready -->
<g id="edge4" class="edge transition">
<title>waddr_dec&#45;&gt;wready</title>
<path fill="none" stroke="#000000" d="M82.4413,-179.8015C83.8369,-169.3976 85.6178,-156.1215 87.1934,-144.3768"/>
<polygon fill="#000000" stroke="#000000" points="90.7049,-144.5242 88.5656,-134.1476 83.767,-143.5934 90.7049,-144.5242"/>
<text text-anchor="middle" x="87.3895" y="-154" font-family="Helvetica,sans-Serif" font-size="10.00" fill="#000000"> </text>
</g>
<!-- wready&#45;&gt;widle -->
<g id="edge5" class="edge transition">
<title>wready&#45;&gt;widle</title>
<path fill="none" stroke="#000000" d="M107.7202,-134.1024C136.3839,-167.4416 189.1311,-240.4058 160,-298 149.5268,-318.7061 128.8494,-334.3488 110.2806,-344.9848"/>
<polygon fill="#000000" stroke="#000000" points="108.5123,-341.9621 101.3882,-349.8042 111.8478,-348.1164 108.5123,-341.9621"/>
<text text-anchor="start" x="167" y="-236" font-family="Helvetica,sans-Serif" font-size="10.00" fill="#000000">wlast == 1&#39;b1 &#160;&#160;</text>
</g>
<!-- wvalid -->
<g id="node6" class="node state regular">
<title>wvalid</title>
<polygon fill="#ffffff" fill-opacity="0.003922" stroke="transparent" stroke-width="2" points="94,-52 38,-52 38,-16 94,-16 94,-52"/>
<text text-anchor="start" x="49.335" y="-30.2" font-family="Helvetica,sans-Serif" font-size="12.00" fill="#000000">wvalid</text>
<path fill="none" stroke="#000000" stroke-width="2" d="M50.3333,-17C50.3333,-17 81.6667,-17 81.6667,-17 87.3333,-17 93,-22.6667 93,-28.3333 93,-28.3333 93,-39.6667 93,-39.6667 93,-45.3333 87.3333,-51 81.6667,-51 81.6667,-51 50.3333,-51 50.3333,-51 44.6667,-51 39,-45.3333 39,-39.6667 39,-39.6667 39,-28.3333 39,-28.3333 39,-22.6667 44.6667,-17 50.3333,-17"/>
</g>
<!-- wready&#45;&gt;wvalid -->
<g id="edge6" class="edge transition">
<title>wready&#45;&gt;wvalid</title>
<path fill="none" stroke="#000000" d="M85.4517,-97.8015C82.2474,-87.2915 78.1495,-73.8503 74.542,-62.0177"/>
<polygon fill="#000000" stroke="#000000" points="77.797,-60.6922 71.5328,-52.1476 71.1013,-62.7336 77.797,-60.6922"/>
<text text-anchor="start" x="80" y="-72" font-family="Helvetica,sans-Serif" font-size="10.00" fill="#000000">not (wlast == 1&#39;b1) &#160;&#160;</text>
</g>
<!-- wvalid&#45;&gt;wstart -->
<g id="edge7" class="edge transition">
<title>wvalid&#45;&gt;wstart</title>
<path fill="none" stroke="#000000" d="M46.8594,-52.3303C41.9375,-58.8909 38,-66.7252 38,-75 38,-142.5 38,-142.5 38,-142.5 38,-159.6399 31.014,-162.9788 29,-180 27.12,-195.8892 27.1623,-200.1059 29,-216 30.3807,-227.9416 33.1648,-240.8916 35.9636,-251.9984"/>
<polygon fill="#000000" stroke="#000000" points="32.6654,-253.2167 38.6061,-261.9893 39.4327,-251.4268 32.6654,-253.2167"/>
<text text-anchor="middle" x="38.3895" y="-154" font-family="Helvetica,sans-Serif" font-size="10.00" fill="#000000"> </text>
</g>
</g>
</svg>
