<?xml version="1.0" encoding="UTF-8" standalone="no"?>
<!DOCTYPE svg PUBLIC "-//W3C//DTD SVG 1.1//EN"
 "http://www.w3.org/Graphics/SVG/1.1/DTD/svg11.dtd">
<!-- Generated by graphviz version 2.40.1 (20161225.0304)
 -->
<!-- Title: state transitions Pages: 1 -->
<svg width="258pt" height="270pt"
 viewBox="0.00 0.00 258.00 270.00" xmlns="http://www.w3.org/2000/svg" xmlns:xlink="http://www.w3.org/1999/xlink">
<g id="graph0" class="graph" transform="scale(1 1) rotate(0) translate(4 266)">
<title>state transitions</title>
<polygon fill="#ffffff" stroke="transparent" points="-4,4 -4,-266 254,-266 254,4 -4,4"/>
<g id="clust1" class="cluster state regular">
<title>cluster_arnext_state</title>
<path fill="none" stroke="#000000" stroke-width="2" d="M20,-8C20,-8 230,-8 230,-8 236,-8 242,-14 242,-20 242,-20 242,-242 242,-242 242,-248 236,-254 230,-254 230,-254 20,-254 20,-254 14,-254 8,-248 8,-242 8,-242 8,-20 8,-20 8,-14 14,-8 20,-8"/>
<text text-anchor="start" x="91.988" y="-235.2" font-family="Helvetica,sans-Serif" font-size="12.00" fill="#000000">arnext_state</text>
</g>
<!-- arnext_state -->
<!-- aridle -->
<g id="node2" class="node state regular">
<title>aridle</title>
<polygon fill="#ffffff" fill-opacity="0.003922" stroke="transparent" stroke-width="2" points="107,-216 51,-216 51,-180 107,-180 107,-216"/>
<text text-anchor="start" x="64.3336" y="-194.2" font-family="Helvetica,sans-Serif" font-size="12.00" fill="#000000">aridle</text>
<path fill="none" stroke="#000000" stroke-width="2" d="M63.3333,-181C63.3333,-181 94.6667,-181 94.6667,-181 100.3333,-181 106,-186.6667 106,-192.3333 106,-192.3333 106,-203.6667 106,-203.6667 106,-209.3333 100.3333,-215 94.6667,-215 94.6667,-215 63.3333,-215 63.3333,-215 57.6667,-215 52,-209.3333 52,-203.6667 52,-203.6667 52,-192.3333 52,-192.3333 52,-186.6667 57.6667,-181 63.3333,-181"/>
</g>
<!-- arstart -->
<g id="node3" class="node state regular">
<title>arstart</title>
<polygon fill="#ffffff" fill-opacity="0.003922" stroke="transparent" stroke-width="2" points="72,-134 16,-134 16,-98 72,-98 72,-134"/>
<text text-anchor="start" x="26.9996" y="-112.2" font-family="Helvetica,sans-Serif" font-size="12.00" fill="#000000">arstart</text>
<path fill="none" stroke="#000000" stroke-width="2" d="M28.3333,-99C28.3333,-99 59.6667,-99 59.6667,-99 65.3333,-99 71,-104.6667 71,-110.3333 71,-110.3333 71,-121.6667 71,-121.6667 71,-127.3333 65.3333,-133 59.6667,-133 59.6667,-133 28.3333,-133 28.3333,-133 22.6667,-133 17,-127.3333 17,-121.6667 17,-121.6667 17,-110.3333 17,-110.3333 17,-104.6667 22.6667,-99 28.3333,-99"/>
</g>
<!-- aridle&#45;&gt;arstart -->
<g id="edge1" class="edge transition">
<title>aridle&#45;&gt;arstart</title>
<path fill="none" stroke="#000000" d="M71.2324,-179.8015C66.701,-169.1853 60.8932,-155.5784 55.8059,-143.6596"/>
<polygon fill="#000000" stroke="#000000" points="58.8907,-141.9708 51.7459,-134.1476 52.4526,-144.7188 58.8907,-141.9708"/>
<text text-anchor="middle" x="64.3895" y="-154" font-family="Helvetica,sans-Serif" font-size="10.00" fill="#000000"> </text>
</g>
<!-- arstart&#45;&gt;arstart -->
<g id="edge3" class="edge transition">
<title>arstart&#45;&gt;arstart</title>
<path fill="none" stroke="#000000" d="M72.0183,-120.8247C83.888,-121.1883 94,-119.5801 94,-116 94,-113.5387 89.2205,-112.0094 82.3762,-111.4121"/>
<polygon fill="#000000" stroke="#000000" points="82.0957,-107.9049 72.0183,-111.1753 81.9356,-114.903 82.0957,-107.9049"/>
<text text-anchor="start" x="94" y="-113" font-family="Helvetica,sans-Serif" font-size="10.00" fill="#000000">not (arvalid == 1&#39;b1) &#160;&#160;</text>
</g>
<!-- arready -->
<g id="node4" class="node state regular">
<title>arready</title>
<polygon fill="#ffffff" fill-opacity="0.003922" stroke="transparent" stroke-width="2" points="156,-52 94,-52 94,-16 156,-16 156,-52"/>
<text text-anchor="start" x="104.6636" y="-30.2" font-family="Helvetica,sans-Serif" font-size="12.00" fill="#000000">arready</text>
<path fill="none" stroke="#000000" stroke-width="2" d="M106.3333,-17C106.3333,-17 143.6667,-17 143.6667,-17 149.3333,-17 155,-22.6667 155,-28.3333 155,-28.3333 155,-39.6667 155,-39.6667 155,-45.3333 149.3333,-51 143.6667,-51 143.6667,-51 106.3333,-51 106.3333,-51 100.6667,-51 95,-45.3333 95,-39.6667 95,-39.6667 95,-28.3333 95,-28.3333 95,-22.6667 100.6667,-17 106.3333,-17"/>
</g>
<!-- arstart&#45;&gt;arready -->
<g id="edge2" class="edge transition">
<title>arstart&#45;&gt;arready</title>
<path fill="none" stroke="#000000" d="M61.9765,-97.8015C73.0925,-86.5483 87.5278,-71.9348 99.7779,-59.5335"/>
<polygon fill="#000000" stroke="#000000" points="102.5362,-61.7216 107.0737,-52.1476 97.5561,-56.8023 102.5362,-61.7216"/>
<text text-anchor="start" x="89" y="-72" font-family="Helvetica,sans-Serif" font-size="10.00" fill="#000000">arvalid == 1&#39;b1 &#160;&#160;</text>
</g>
<!-- arready&#45;&gt;aridle -->
<g id="edge4" class="edge transition">
<title>arready&#45;&gt;aridle</title>
<path fill="none" stroke="#000000" d="M156.2302,-39.8107C187.4976,-46.5444 231,-58.8202 231,-75 231,-157 231,-157 231,-157 231,-168.7592 162.3092,-183.2368 117.2816,-191.4637"/>
<polygon fill="#000000" stroke="#000000" points="116.4577,-188.0556 107.2338,-193.2682 117.695,-194.9454 116.4577,-188.0556"/>
<text text-anchor="middle" x="232.3895" y="-113" font-family="Helvetica,sans-Serif" font-size="10.00" fill="#000000"> </text>
</g>
</g>
</svg>
